<svg width="113" height="125" viewBox="0 0 123 135" fill="none" xmlns="http://www.w3.org/2000/svg">
<path d="M36.6664 86.0459C36.6616 86.0406 36.6592 86.0375 36.6592 86.0375M120 115.192V132H3V115.192C3 109.898 6.66258 103.935 13.5396 98.4026C19.9726 93.2278 28.5218 89.0246 37.0563 86.7155C37.0955 86.7933 37.1368 86.8783 37.1809 86.9705C37.2755 87.1693 37.3687 87.3742 37.4744 87.606L37.4871 87.6341C37.5842 87.847 37.6957 88.0928 37.8078 88.328L38.7755 90.3545H40.8529H54.8375C58.0082 90.3537 59.5557 90.3541 61.1215 90.3545C62.6514 90.3549 64.1996 90.3552 67.2987 90.3545H81.2844H83.3614L84.3291 88.328C84.6065 87.7472 85.0462 87.0441 85.4678 86.5968C85.4699 86.5945 85.4719 86.5926 85.4736 86.5903C94.1636 88.8706 102.909 93.1329 109.46 98.4026C116.338 103.935 120 109.898 120 115.192Z" stroke="#7E7E7E" stroke-width="5.63759"/>
<path d="M33.9705 118.289C36.7224 118.289 38.8211 115.86 38.8211 113.029C38.8211 110.199 36.7224 107.77 33.9705 107.77C31.2186 107.77 29.1199 110.199 29.1199 113.029C29.1199 115.86 31.2186 118.289 33.9705 118.289ZM42.8846 113.029C42.8846 118.67 38.7675 123.002 33.9705 123.002C29.1735 123.002 25.0564 118.67 25.0564 113.029C25.0564 107.389 29.1735 103.056 33.9705 103.056C38.7675 103.056 42.8846 107.389 42.8846 113.029Z" fill="#333333" stroke="#7E7E7E" stroke-width="2.8188"/>
<path d="M89.0296 120.618H82.1472V113.029L85.5884 105.441H99.3531L102.794 113.029V120.618H95.9119" stroke="#7E7E7E" stroke-width="5.63759" stroke-linejoin="round"/>
<path d="M92.4708 105.441C94.1914 102.912 95.9119 92.1618 94.1914 88.3676" stroke="#7E7E7E" stroke-width="5.63759"/>
<path d="M32.9629 105.441C31.2424 102.912 29.5218 92.1618 31.2424 88.3676" stroke="#7E7E7E" stroke-width="5.63759"/>
<path d="M92.4707 37.1471C92.4707 56.0141 78.612 71.2941 61.5001 71.2941C44.3881 71.2941 30.5295 56.0141 30.5295 37.1471C30.5295 18.28 44.3881 3 61.5001 3C78.612 3 92.4707 18.28 92.4707 37.1471Z" stroke="#7E7E7E" stroke-width="5.63759"/>
</svg>
