<svg width="57" height="43" viewBox="0 0 57 43" fill="none" xmlns="http://www.w3.org/2000/svg">
<rect width="57" height="43" fill="#D9D9D9"/>
<path d="M27.8409 22.2727C27.8409 24.1136 27.5085 25.7045 26.8438 27.0455C26.179 28.3864 25.267 29.4205 24.108 30.1477C22.9489 30.875 21.625 31.2386 20.1364 31.2386C18.6477 31.2386 17.3239 30.875 16.1648 30.1477C15.0057 29.4205 14.0938 28.3864 13.429 27.0455C12.7642 25.7045 12.4318 24.1136 12.4318 22.2727C12.4318 20.4318 12.7642 18.8409 13.429 17.5C14.0938 16.1591 15.0057 15.125 16.1648 14.3977C17.3239 13.6705 18.6477 13.3068 20.1364 13.3068C21.625 13.3068 22.9489 13.6705 24.108 14.3977C25.267 15.125 26.179 16.1591 26.8438 17.5C27.5085 18.8409 27.8409 20.4318 27.8409 22.2727ZM25.7955 22.2727C25.7955 20.7614 25.5426 19.4858 25.0369 18.446C24.5369 17.4062 23.858 16.6193 23 16.0852C22.1477 15.5511 21.1932 15.2841 20.1364 15.2841C19.0795 15.2841 18.1222 15.5511 17.2642 16.0852C16.4119 16.6193 15.733 17.4062 15.2273 18.446C14.7273 19.4858 14.4773 20.7614 14.4773 22.2727C14.4773 23.7841 14.7273 25.0597 15.2273 26.0994C15.733 27.1392 16.4119 27.9261 17.2642 28.4602C18.1222 28.9943 19.0795 29.2614 20.1364 29.2614C21.1932 29.2614 22.1477 28.9943 23 28.4602C23.858 27.9261 24.5369 27.1392 25.0369 26.0994C25.5426 25.0597 25.7955 23.7841 25.7955 22.2727ZM31.3949 31V13.5455H37.2926C38.6563 13.5455 39.7756 13.7784 40.6506 14.2443C41.5256 14.7045 42.1733 15.3381 42.5938 16.1449C43.0142 16.9517 43.2244 17.8693 43.2244 18.8977C43.2244 19.9261 43.0142 20.8381 42.5938 21.6335C42.1733 22.429 41.5284 23.054 40.6591 23.5085C39.7898 23.9574 38.679 24.1818 37.3267 24.1818H32.554V22.2727H37.2585C38.1903 22.2727 38.9403 22.1364 39.5085 21.8636C40.0824 21.5909 40.4972 21.2045 40.7528 20.7045C41.0142 20.1989 41.1449 19.5966 41.1449 18.8977C41.1449 18.1989 41.0142 17.5881 40.7528 17.0653C40.4915 16.5426 40.0739 16.1392 39.5 15.8551C38.9261 15.5653 38.1676 15.4205 37.2244 15.4205H33.5085V31H31.3949ZM39.6108 23.1591L43.9062 31H41.4517L37.2244 23.1591H39.6108Z" fill="#7E7E7E"/>
</svg>
