<svg width="113" height="125" viewBox="0 0 123 135" fill="none" xmlns="http://www.w3.org/2000/svg">
<path d="M36.6664 86.0459C36.6616 86.0406 36.6592 86.0375 36.6592 86.0375M120 115.192V132H3V115.192C3 109.898 6.66258 103.935 13.5396 98.4026C19.9726 93.2278 28.5218 89.0246 37.0563 86.7155C37.0955 86.7933 37.1368 86.8783 37.1809 86.9705C37.2755 87.1693 37.3687 87.3742 37.4744 87.606L37.4871 87.6341C37.5842 87.847 37.6957 88.0928 37.8078 88.328L38.7755 90.3545H40.8529H54.8375C58.0082 90.3537 59.5557 90.3541 61.1215 90.3545C62.6514 90.3549 64.1996 90.3552 67.2987 90.3545H81.2844H83.3614L84.3291 88.328C84.6065 87.7472 85.0462 87.0441 85.4678 86.5968C85.4699 86.5945 85.4719 86.5926 85.4736 86.5903C94.1636 88.8706 102.909 93.1329 109.46 98.4026C116.338 103.935 120 109.898 120 115.192Z" stroke="#7E7E7E" stroke-width="5.63759"/>
<path d="M92.4706 37.1471C92.4706 56.0141 78.612 71.2941 61.5001 71.2941C44.3881 71.2941 30.5295 56.0141 30.5295 37.1471C30.5295 18.28 44.3881 3 61.5001 3C78.612 3 92.4706 18.28 92.4706 37.1471Z" stroke="#7E7E7E" stroke-width="5.63759"/>
</svg>
